<svg version="1.1" width="15px" height="15px" fill="#333" id="Ebene_1" xmlns="http://www.w3.org/2000/svg" x="0" y="0" viewBox="0 0 12 12" style="enable-background:new 0 0 12 12" xml:space="preserve"><path d="M5 10.6c-.1 0-.1 0 0 0-.4-1.2-.7-2.4-1-3.5L3.9 7c-.3 0-.6.1-.8.1-.6.2-1.2.5-1.7.9-.6.5-.9 1.2-1.2 2-.1.6-.2 1.3-.2 1.9 0 .1 0 .1.1.1h11.3c.1 0 .1 0 .1-.1v-.6c0-.6-.2-1.2-.4-1.8-.3-.9-.9-1.5-1.7-2-.5-.3-1.1-.5-1.7-.5-.1 0-.1 0-.1.1-.3 1.2-.7 2.3-1 3.5v.1-.1c-.2-.5-.3-1-.5-1.5V9c.1-.1.2-.3.4-.4l.1-.1v-.4c0-.1-.1-.2-.2-.2H5.2c-.1 0-.2.1-.2.3v.3c0 .1 0 .1.1.2s.2.3.3.4v.1c-.1.5-.3.9-.4 1.4zm.7-3.4c.6 0 1-.2 1.4-.6.2-.2.5-.6.6-1.1 0-.1.1-.1.1-.2.4-.4.6-.8.6-1.3v-.5c0-.1-.1-.2-.1-.2-.1 0-.1 0-.1-.1v-1c0-.3 0-.5-.1-.7C7.8.8 7.4.4 6.7.2 6.2 0 5.6 0 5 .1c-.8.2-1.3.7-1.5 1.5-.1.2-.1.4-.1.6v1.1c-.1 0-.2.1-.2.2v.6c0 .5.2.9.5 1.2 0 0 .1.1.1.2.2.4.4.8.7 1.2.4.3.8.5 1.2.5z" style="fill:#fff"/><path class="st1" d="M5 10.6c.2-.5.3-1 .5-1.5V9c-.2-.1-.3-.2-.4-.3-.1-.1-.1-.2-.1-.2v-.3c0-.2.1-.3.2-.3h1.1c.1 0 .2.1.2.2v.4c0 .1 0 .1-.1.1 0 .2-.1.3-.3.5v.1c.2.5.3 1 .5 1.5v.1-.1l1-3.5c0-.2 0-.2.1-.2.6 0 1.2.2 1.7.5.8.4 1.3 1.1 1.7 1.9.2.6.4 1.2.4 1.8v.6c0 .1 0 .1-.1.1H.1c-.1.1-.1.1-.1 0 0-.6.1-1.3.2-1.9.2-.8.6-1.4 1.2-2 .5-.4 1-.7 1.6-.9.3 0 .6-.1.9-.1l.1.1c.3 1.1.6 2.3 1 3.5-.1 0-.1 0 0 0-.1 0-.1 0 0 0z"/><path class="st1" d="M5.7 7.2c-.4 0-.8-.2-1.2-.5-.3-.3-.5-.8-.7-1.2 0-.1-.1-.1-.1-.2-.3-.3-.5-.7-.6-1.2v-.6c0-.1.1-.2.2-.2V2.2c0-.2 0-.4.1-.7C3.7.8 4.2.3 5 .1 5.6 0 6.1 0 6.7.2c.7.2 1.2.7 1.4 1.4 0 .2.1.4.1.7v1s0 .1.1.1.1.1.1.2c0 .2.1.3 0 .5 0 .4-.2.8-.6 1.2 0 .1-.1.1-.1.2-.1.5-.3.9-.7 1.2-.3.3-.8.5-1.3.5z"/></svg>